PathFileType	4	(X/Y/Z)	 s06c0102.trc
DataRate	CameraRate	NumFrames	NumMarkers	Units	OrigDataRate	OrigDataStartFrame	OrigNumFrames
200	200	7	48	mm	200	1501	2000
Frame#	Time	racr			lacr			c7			jug			rlel			rdr			llel			ldr			s2			lic			ric			lasi			rasi			rpsi			lpsi			rgt			lgt			rth1			rth2			rth3			rth4			rlfc			rmfc			rsh1			rsh2			rsh3			rsh4			rlmal			rcal			rtoe			rmt5			lth1			lth2			lth4			lth3			llfc			lmfc			llmal			lcal			lmt5			lsh1			lsh2			lsh3			lsh4			ltoe			SBIKE			LBIKE			RBIKE			
		X1	Y1	Z1	X2	Y2	Z2	X3	Y3	Z3	X4	Y4	Z4	X5	Y5	Z5	X6	Y6	Z6	X7	Y7	Z7	X8	Y8	Z8	X9	Y9	Z9	X10	Y10	Z10	X11	Y11	Z11	X12	Y12	Z12	X13	Y13	Z13	X14	Y14	Z14	X15	Y15	Z15	X16	Y16	Z16	X17	Y17	Z17	X18	Y18	Z18	X19	Y19	Z19	X20	Y20	Z20	X21	Y21	Z21	X22	Y22	Z22	X23	Y23	Z23	X24	Y24	Z24	X25	Y25	Z25	X26	Y26	Z26	X27	Y27	Z27	X28	Y28	Z28	X29	Y29	Z29	X30	Y30	Z30	X31	Y31	Z31	X32	Y32	Z32	X33	Y33	Z33	X34	Y34	Z34	X35	Y35	Z35	X36	Y36	Z36	X37	Y37	Z37	X38	Y38	Z38	X39	Y39	Z39	X40	Y40	Z40	X41	Y41	Z41	X42	Y42	Z42	X43	Y43	Z43	X44	Y44	Z44	X45	Y45	Z45	X46	Y46	Z46	X47	Y47	Z47	X48	Y48	Z48	
1501	7.5050	508.705986	1286.257128	-66.640488	530.585673	1268.054532	-355.858639	512.617669	1348.036979	-217.779509	483.167086	1184.760270	-209.770020	529.531733	1050.334596	53.165225	717.134692	924.399105	-42.885978	498.995684	1027.144258	-470.649981	705.497010	934.072537	-402.947856	-30.516497	1147.782027	-198.308368	122.610927	1129.624077	-382.253129	118.048350	1121.935220	-46.159570	141.448676	1084.893196	-341.421994	153.222148	1080.761167	-83.125687	2.409854	1188.956470	-176.429092	-6.534231	1184.861981	-236.164596	84.540967	1027.681090	-20.593982	101.174819	1092.706578	-400.557990	149.083566	906.432510	1.133706	202.914251	832.801213	-3.197790	211.361117	747.167546	-15.801582	234.694084	847.702520	-17.201165	235.989523	642.804579	-30.229196	235.573602	620.152995	-141.968213	223.183346	522.839304	-9.239883	241.618452	439.253465	-28.526787	216.685068	356.085388	-37.272506	266.668876	443.285864	-60.753718	208.783460	279.289920	-48.020897	148.144204	281.881874	-97.454825	378.593173	127.051914	-96.081697	283.305315	157.582756	-27.506459	180.660931	1021.816491	-418.262149	267.730213	1014.002349	-416.113181	280.442756	1045.615484	-399.428543	340.775599	962.384594	-419.318433	419.966874	880.419193	-391.016566	421.274888	867.479655	-271.649360	156.628365	623.709070	-369.848178	83.890101	642.739325	-321.584325	200.030196	486.866650	-398.456035	359.184424	794.323211	-407.233083	311.813756	725.030237	-383.406300	234.040749	682.119442	-381.292628	331.246736	711.613930	-352.701897	269.617670	432.444769	-342.550792	-203.099902	869.065477	-206.022067	-49.260804	84.306091	-413.804893	-48.799913	80.277334	-16.296886	
1502	7.5100	508.902391	1286.537114	-66.657880	530.284585	1268.628809	-355.479505	512.306198	1348.242045	-217.095153	482.881843	1184.902751	-209.712148	530.080462	1050.641216	53.193571	717.549529	924.034252	-42.265276	498.212893	1027.247022	-469.076007	704.929067	934.658227	-402.013767	-30.613354	1149.368969	-196.691808	121.883843	1132.011687	-381.311645	119.189618	1126.893512	-41.127812	140.442678	1086.820542	-340.831891	153.353967	1081.334858	-82.081739	2.380440	1190.219869	-174.643701	-6.664910	1186.758633	-234.502422	84.293553	1028.252787	-20.177351	100.913945	1097.010913	-398.885640	147.262519	906.077646	1.233348	199.806246	831.871469	-3.074399	206.984028	745.832735	-15.903269	232.604055	846.480231	-16.554507	230.125934	641.301098	-30.666924	229.439558	618.473575	-142.758742	217.419195	521.810212	-9.465396	235.573196	438.174946	-28.697604	210.455943	355.045648	-37.022838	259.702752	441.788361	-61.072710	201.432337	277.915117	-47.898814	140.937549	281.718091	-97.104897	368.314479	122.182513	-95.960512	273.769084	154.687867	-27.051246	180.543064	1027.349729	-416.497172	267.751769	1020.409918	-414.229641	279.985087	1052.017238	-396.947505	341.396418	969.628262	-417.493404	422.041918	888.706894	-388.846779	423.171875	875.021968	-269.582005	162.915799	626.744937	-369.692454	89.417035	643.540250	-321.529733	209.621204	490.781569	-398.556802	362.938334	801.740205	-405.653903	316.669086	731.478206	-382.422186	239.688290	687.169253	-380.835613	336.383287	718.112722	-351.937919	280.908639	438.546041	-342.463280	-203.107433	869.086038	-206.010537	-49.278401	84.349785	-413.782130	-48.819441	80.318411	-16.281305	
1503	7.5150	509.181994	1286.582342	-66.570322	529.990259	1269.148079	-355.021445	512.060313	1348.281653	-216.344828	482.569920	1185.078697	-209.629239	530.553246	1050.717980	53.258535	718.144845	923.693793	-41.615249	497.164813	1027.096650	-467.379051	704.209769	935.094641	-400.800671	-30.957024	1151.058231	-195.257147	121.268394	1134.375418	-380.354220	119.220011	1127.537929	-39.915849	139.507818	1088.712280	-340.230744	153.607823	1082.014212	-80.822819	2.303494	1191.691207	-173.211139	-7.039551	1188.501032	-232.875088	83.941677	1028.619401	-19.848976	100.808712	1101.166932	-397.303326	145.631191	905.744367	1.276959	197.146693	830.599380	-2.934570	203.139024	744.768943	-16.026880	229.770257	844.855526	-17.213600	224.799579	640.326076	-31.356630	223.876935	617.029973	-143.884480	212.088551	520.985641	-9.791620	229.493583	437.250023	-29.143605	203.792021	354.219651	-37.165450	253.562674	440.564976	-61.518989	193.477748	276.906653	-47.957364	133.027300	281.531118	-97.192663	357.801774	118.250657	-95.746099	263.448904	151.920223	-27.673289	180.477685	1032.640963	-414.946751	267.771742	1026.416970	-412.330310	279.489372	1058.060012	-394.655066	341.790995	976.277225	-415.572418	423.646085	896.226995	-386.829702	424.645612	881.961815	-267.422118	169.199538	628.934904	-369.472908	94.675156	643.363689	-321.748575	219.331578	494.287598	-398.696600	366.289167	808.533719	-403.979432	321.311976	737.255688	-381.395174	245.161510	691.454264	-380.324011	341.416517	723.884692	-351.084944	291.975233	443.963521	-342.468702	-203.110034	869.074368	-206.010678	-49.292560	84.377599	-413.769310	-48.810303	80.314726	-16.284118	
1504	7.5200	509.536749	1286.359509	-66.292996	529.677562	1269.490265	-354.528265	511.918075	1348.265463	-215.530614	482.376209	1185.037998	-209.574318	531.050636	1050.605563	53.367810	718.680630	923.431495	-41.413623	495.997867	1026.776736	-465.386066	703.451328	935.426310	-399.818421	-31.311446	1152.711051	-193.894748	120.828334	1136.552776	-379.323201	118.643173	1127.169599	-38.586218	138.410960	1090.204506	-339.664435	153.377297	1082.370189	-80.060321	2.175944	1192.768827	-171.612581	-7.358343	1190.161137	-231.402739	83.529464	1028.814164	-19.544936	100.653697	1105.104749	-395.837487	144.315856	905.397442	1.125502	195.338980	829.679452	-3.588754	200.035308	743.783957	-16.196673	227.529451	843.541895	-17.756886	220.408927	639.640579	-32.182859	219.096573	616.001583	-145.077614	207.333494	520.266793	-10.360395	223.424901	436.289237	-29.883235	196.584471	353.702838	-37.651277	247.401178	439.368175	-62.380748	184.618527	276.243611	-48.666527	124.475427	281.506990	-97.535794	346.901786	115.337476	-95.479743	253.030430	150.526244	-27.313589	180.463952	1037.696859	-413.720269	267.742513	1031.997709	-410.488968	279.121468	1063.489093	-392.258464	342.054923	982.206728	-413.388953	424.893405	903.130715	-384.802690	425.705439	888.601484	-264.685532	175.478514	630.145635	-369.246177	99.839122	642.092697	-321.600554	229.170435	497.153497	-398.684250	369.190230	814.622064	-402.249530	325.931637	742.098985	-380.489953	250.432187	694.884859	-379.738994	346.043929	728.908798	-350.204450	303.067045	449.064239	-342.819074	-203.132107	869.045282	-205.967137	-49.280620	84.400262	-413.783086	-48.824048	80.326451	-16.292026	
1505	7.5250	509.928842	1285.900079	-65.939840	529.397664	1269.656331	-354.058965	511.914545	1348.165364	-214.800846	482.242211	1184.846734	-209.477571	531.609538	1050.291991	53.562856	718.853149	923.006818	-41.326794	494.656223	1026.282961	-463.194763	702.882935	935.785655	-399.144044	-32.331767	1155.276138	-191.627788	120.392741	1138.585625	-378.312361	118.171202	1127.811863	-36.969836	137.696147	1091.638296	-339.208260	152.951528	1082.630224	-79.340986	1.002623	1194.184875	-170.040475	-5.900285	1190.902864	-230.449160	83.099769	1028.876149	-19.297903	100.424163	1108.721290	-394.220900	142.919159	904.864371	0.546374	193.086444	829.154249	-4.066321	197.739576	743.099683	-16.485840	226.257779	842.560715	-18.166491	218.167742	639.426593	-32.321183	215.227864	615.629363	-146.296879	203.114861	519.823802	-11.100363	217.491992	435.575715	-30.752142	189.117427	353.425654	-38.318536	241.379247	438.136989	-63.423963	175.479019	276.027256	-49.599538	115.200499	281.817387	-98.004253	335.837228	113.338665	-95.366253	242.337257	149.656819	-27.431038	180.466342	1042.364021	-412.559954	267.782991	1037.026766	-408.762519	278.832790	1068.365324	-389.952502	342.387248	987.714747	-411.663570	425.841459	909.266554	-381.489195	426.711524	894.188530	-262.355652	181.514887	630.463749	-369.140271	104.914729	639.909077	-321.695938	239.110816	499.346790	-398.720433	371.639869	819.769945	-400.467971	329.668089	746.357896	-379.263078	255.387271	697.424949	-379.215345	350.380538	733.556997	-350.182911	314.402900	453.477174	-342.694698	-203.156526	869.007891	-205.950598	-49.279835	84.398761	-413.774676	-48.810397	80.315688	-16.276054	
1506	7.5300	510.347229	1285.263983	-65.505857	529.111800	1269.717247	-353.565190	512.059865	1348.047486	-214.038020	482.285106	1184.409043	-209.329016	532.105993	1049.702366	53.744702	718.682619	922.476260	-41.225772	493.294224	1025.643331	-460.737565	702.723811	936.400283	-398.916173	-32.889745	1156.758367	-190.464633	119.900551	1140.645486	-377.212675	117.510880	1128.360426	-35.423486	136.449208	1092.992806	-338.606442	152.671467	1082.756154	-78.127686	0.668694	1195.154821	-168.740449	-6.293141	1192.407026	-229.134248	82.472860	1028.855384	-18.888579	100.184104	1112.192941	-392.942373	143.128953	904.756144	0.444446	191.900102	828.650674	-4.770527	196.327718	742.626013	-16.810555	225.270383	841.899924	-18.684423	216.081142	639.052907	-33.556012	211.727585	616.138175	-147.209347	199.539140	519.637446	-11.992936	211.852781	435.082731	-31.925322	181.527564	353.521290	-39.233253	235.606523	437.117524	-64.743245	166.341922	276.689724	-50.142932	105.839101	282.621368	-98.412140	324.816948	112.296138	-95.090090	231.558432	149.553536	-27.561062	180.426519	1046.552078	-411.412642	267.682396	1041.417020	-406.892634	278.563390	1072.546322	-387.740125	342.445934	992.266502	-409.657519	426.173260	914.653446	-379.280511	427.557244	899.255799	-260.202600	187.271879	629.842219	-369.054369	110.183811	636.802402	-321.911016	248.997190	500.740345	-398.349766	373.570618	824.054140	-398.557093	333.164043	749.456635	-378.186666	260.012661	698.940665	-378.708377	354.051237	736.509083	-348.557754	325.546683	457.379009	-342.750309	-203.176070	868.969967	-205.989757	-49.289804	84.357466	-413.750586	-48.843606	80.308220	-16.260430	
1507	7.5350	510.791652	1284.394107	-64.959567	528.869395	1269.680762	-353.030766	512.270373	1347.930861	-213.336502	482.336406	1183.988302	-209.099566	533.596187	1049.138444	54.132902	718.340434	922.088622	-41.192127	491.866567	1024.756551	-458.232850	702.711821	936.613207	-398.328248	-33.552147	1158.116677	-189.394159	120.245006	1142.128646	-375.694754	117.955610	1128.307287	-35.425865	134.778748	1093.066950	-338.021030	151.854570	1082.581937	-77.236753	0.246109	1196.064764	-167.397666	-6.613798	1193.847411	-227.969711	81.646181	1028.662362	-18.427592	99.796577	1115.262080	-391.625265	142.639678	904.663785	0.090580	191.698298	828.576869	-5.389732	195.802582	742.476755	-17.306850	224.751560	841.750163	-19.433708	215.267785	639.103285	-34.681044	210.642007	616.259147	-148.559429	196.578975	519.683789	-13.063054	206.583638	434.904931	-33.055364	174.113609	354.278173	-40.185037	230.144249	436.370289	-66.141397	157.178167	277.805121	-50.951331	96.550758	284.173831	-98.879099	313.696186	111.688214	-94.998891	220.824308	150.168499	-27.658863	180.248090	1050.119383	-410.296551	267.411013	1045.065501	-405.016682	278.146040	1076.026396	-385.623379	342.282654	996.148528	-407.867626	426.228137	919.050189	-376.924482	427.987722	903.462763	-257.979217	192.806746	628.282080	-369.026727	115.068704	632.617511	-322.108715	258.677356	501.528314	-398.655888	375.017654	827.301538	-396.796652	336.218182	751.603245	-377.138711	264.219724	699.584556	-378.234116	357.351595	738.697802	-347.501340	336.497158	460.978501	-343.375362	-203.212033	868.958296	-206.076566	-49.308384	84.387933	-413.773829	-48.858169	80.293518	-16.260536	
